<svg xmlns="http://www.w3.org/2000/svg" width="980" height="297" viewBox="0 0 980 297" role="img">
<style>
text{font-family:Arial,Helvetica,sans-serif;fill:#172026}
.title{font-size:22px;font-weight:700}
.subtitle{font-size:13px;fill:#5b6770}
.axis{font-size:11px;fill:#5b6770}
.label{font-size:12px}
.small{font-size:10px;fill:#5b6770}
</style>
<text x="36" y="36" class="title">Supervised model performance</text>
<text x="36" y="59" class="subtitle">RandomForest models specialized by log family or network flow</text>
<line x1="260.0" y1="77" x2="260.0" y2="242" stroke="#d9dee3" stroke-width="1"/>
<text x="260.0" y="265" text-anchor="middle" class="axis">0.00</text>
<line x1="390.0" y1="77" x2="390.0" y2="242" stroke="#d9dee3" stroke-width="1"/>
<text x="390.0" y="265" text-anchor="middle" class="axis">0.20</text>
<line x1="520.0" y1="77" x2="520.0" y2="242" stroke="#d9dee3" stroke-width="1"/>
<text x="520.0" y="265" text-anchor="middle" class="axis">0.40</text>
<line x1="650.0" y1="77" x2="650.0" y2="242" stroke="#d9dee3" stroke-width="1"/>
<text x="650.0" y="265" text-anchor="middle" class="axis">0.60</text>
<line x1="780.0" y1="77" x2="780.0" y2="242" stroke="#d9dee3" stroke-width="1"/>
<text x="780.0" y="265" text-anchor="middle" class="axis">0.80</text>
<line x1="910.0" y1="77" x2="910.0" y2="242" stroke="#d9dee3" stroke-width="1"/>
<text x="910.0" y="265" text-anchor="middle" class="axis">1.00</text>
<text x="246" y="111" text-anchor="end" class="label">Linux/auth RF</text>
<rect x="260" y="92" width="595.8" height="28" rx="3" fill="#2f8f46"/>
<text x="863.8" y="111" class="label">0.9166</text>
<text x="260" y="132" class="small">dataset Linux/auth tabulaire</text>
<text x="246" y="156" text-anchor="end" class="label">CICIDS RF</text>
<rect x="260" y="137" width="648.2" height="28" rx="3" fill="#2f6fbb"/>
<text x="916.2" y="156" class="label">0.9972</text>
<text x="260" y="177" class="small">MachineLearningCVE</text>
<text x="246" y="201" text-anchor="end" class="label">UNSW/CIC-DDoS RF</text>
<rect x="260" y="182" width="650.0" height="28" rx="3" fill="#d9822b"/>
<text x="918.0" y="201" class="label">1</text>
<text x="260" y="222" class="small">test 80/20 par chunks</text>
<text x="585.0" y="289" text-anchor="middle" class="subtitle">F1-score</text>
</svg>